<?xml version="1.0" encoding="UTF-8"?>
<!DOCTYPE svg PUBLIC "-//W3C//DTD SVG 1.1//EN" "http://www.w3.org/Graphics/SVG/1.1/DTD/svg11.dtd">
<svg xmlns="http://www.w3.org/2000/svg" version="1.1" width="282px" height="308px" style="shape-rendering:geometricPrecision; text-rendering:geometricPrecision; image-rendering:optimizeQuality; fill-rule:evenodd; clip-rule:evenodd" xmlns:xlink="http://www.w3.org/1999/xlink">
<g><path style="opacity:1" fill="#000000" d="M -0.5,-0.5 C 93.5,-0.5 187.5,-0.5 281.5,-0.5C 281.5,102.167 281.5,204.833 281.5,307.5C 187.5,307.5 93.5,307.5 -0.5,307.5C -0.5,204.833 -0.5,102.167 -0.5,-0.5 Z"/></g>
<g><path style="opacity:1" fill="#5c5628" d="M 152.5,55.5 C 138.735,50.8165 125.402,51.8165 112.5,58.5C 116.561,55.2996 121.228,53.1329 126.5,52C 132.167,51.3333 137.833,51.3333 143.5,52C 146.865,52.5053 149.865,53.672 152.5,55.5 Z"/></g>
<g><path style="opacity:1" fill="#86864d" d="M 152.5,55.5 C 154.103,55.3118 155.437,55.8118 156.5,57C 154.86,57.3478 153.527,56.8478 152.5,55.5 Z"/></g>
<g><path style="opacity:1" fill="#32290c" d="M 77.5,59.5 C 88.988,58.5051 100.655,58.1717 112.5,58.5C 112.389,59.1174 112.056,59.6174 111.5,60C 100.505,60.4998 89.505,60.6665 78.5,60.5C 78.5,59.8333 78.1667,59.5 77.5,59.5 Z"/></g>
<g><path style="opacity:1" fill="#3a381f" d="M 193.5,70.5 C 192.833,70.5 192.5,70.8333 192.5,71.5C 191.518,68.0381 191.185,64.3714 191.5,60.5C 180.337,60.9758 169.337,60.4758 158.5,59C 169.833,58.3333 181.167,58.3333 192.5,59C 193.46,62.73 193.793,66.5633 193.5,70.5 Z"/></g>
<g><path style="opacity:1" fill="#020201" d="M 147.5,61.5 C 150.757,62.4617 153.757,63.9617 156.5,66C 166.161,66.4998 175.828,66.6665 185.5,66.5C 185.207,70.4367 185.54,74.27 186.5,78C 190.486,78.4988 194.486,78.6655 198.5,78.5C 198.5,99.8333 198.5,121.167 198.5,142.5C 198.83,162.007 198.497,181.341 197.5,200.5C 178.183,180.514 159.183,160.181 140.5,139.5C 152.126,125.206 164.126,111.206 176.5,97.5C 180.764,93.7032 185.764,91.5365 191.5,91C 181.167,90.3333 170.833,90.3333 160.5,91C 165.88,91.9287 167.38,94.762 165,99.5C 152.977,114.022 141.144,128.689 129.5,143.5C 148.951,165.12 168.951,186.287 189.5,207C 192.567,209.188 195.567,211.355 198.5,213.5C 198.5,216.833 198.5,220.167 198.5,223.5C 194.486,223.334 190.486,223.501 186.5,224C 185.54,227.73 185.207,231.563 185.5,235.5C 175.985,235.173 166.652,235.506 157.5,236.5C 150.153,241.004 142.153,243.337 133.5,243.5C 126.136,242.878 119.47,240.378 113.5,236C 104.173,235.5 94.8393,235.334 85.5,235.5C 85.5,232.5 85.5,229.5 85.5,226.5C 85.4226,225.25 84.756,224.417 83.5,224C 79.5138,223.501 75.5138,223.334 71.5,223.5C 71.5,219.5 71.5,215.5 71.5,211.5C 71.5,197.5 71.5,183.5 71.5,169.5C 71.5,157.5 71.5,145.5 71.5,133.5C 71.5,120.5 71.5,107.5 71.5,94.5C 71.5,89.1667 71.5,83.8333 71.5,78.5C 75.8461,78.6657 80.1794,78.499 84.5,78C 85.4601,74.27 85.7935,70.4367 85.5,66.5C 95.1724,66.6665 104.839,66.4998 114.5,66C 124.743,59.1703 135.743,57.6703 147.5,61.5 Z"/></g>
<g><path style="opacity:1" fill="#dcd476" d="M 148.5,59.5 C 151.757,60.4617 154.757,61.9617 157.5,64C 167.494,64.4998 177.494,64.6665 187.5,64.5C 187.5,68.5 187.5,72.5 187.5,76.5C 191.833,76.5 196.167,76.5 200.5,76.5C 200.5,77.8333 199.833,78.5 198.5,78.5C 194.486,78.6655 190.486,78.4988 186.5,78C 185.54,74.27 185.207,70.4367 185.5,66.5C 175.828,66.6665 166.161,66.4998 156.5,66C 153.757,63.9617 150.757,62.4617 147.5,61.5C 147.328,60.5084 147.662,59.8417 148.5,59.5 Z"/></g>
<g><path style="opacity:1" fill="#342b0c" d="M 83.5,64.5 C 83.5,68.5 83.5,72.5 83.5,76.5C 78.8333,76.5 74.1667,76.5 69.5,76.5C 73.6344,75.5151 77.9677,75.1818 82.5,75.5C 82.185,71.6286 82.5184,67.9619 83.5,64.5 Z"/></g>
<g><path style="opacity:1" fill="#c8ad3d" d="M 148.5,59.5 C 147.662,59.8417 147.328,60.5084 147.5,61.5C 135.743,57.6703 124.743,59.1703 114.5,66C 104.839,66.4998 95.1724,66.6665 85.5,66.5C 85.7935,70.4367 85.4601,74.27 84.5,78C 80.1794,78.499 75.8461,78.6657 71.5,78.5C 71.5,83.8333 71.5,89.1667 71.5,94.5C 70.8333,94.5 70.1667,94.5 69.5,94.5C 69.5,88.5 69.5,82.5 69.5,76.5C 74.1667,76.5 78.8333,76.5 83.5,76.5C 83.5,72.5 83.5,68.5 83.5,64.5C 93.5056,64.6665 103.506,64.4998 113.5,64C 124.429,55.9714 136.096,54.4714 148.5,59.5 Z"/></g>
<g><path style="opacity:1" fill="#f7f7f7" d="M 103.5,91.5 C 114.34,90.1762 125.34,90.1762 136.5,91.5C 131.012,91.1613 127.178,93.4947 125,98.5C 124.333,128.167 124.333,157.833 125,187.5C 126.935,192.73 130.768,195.397 136.5,195.5C 125.167,196.833 113.833,196.833 102.5,195.5C 107.988,195.839 111.822,193.505 114,188.5C 114.667,158.167 114.667,127.833 114,97.5C 111.588,93.5871 108.088,91.5871 103.5,91.5 Z"/></g>
<g><path style="opacity:1" fill="#f6f6f6" d="M 197.5,200.5 C 198.795,201.488 200.128,202.488 201.5,203.5C 202.436,204.974 203.77,205.974 205.5,206.5C 205.5,207.167 205.833,207.5 206.5,207.5C 216.174,214.895 227.174,219.062 239.5,220C 228.248,223.635 217.248,222.801 206.5,217.5C 206.167,217.5 205.833,217.5 205.5,217.5C 204.486,216.326 203.153,215.66 201.5,215.5C 200.71,214.599 199.71,213.932 198.5,213.5C 195.567,211.355 192.567,209.188 189.5,207C 168.951,186.287 148.951,165.12 129.5,143.5C 141.144,128.689 152.977,114.022 165,99.5C 167.38,94.762 165.88,91.9287 160.5,91C 170.833,90.3333 181.167,90.3333 191.5,91C 185.764,91.5365 180.764,93.7032 176.5,97.5C 164.126,111.206 152.126,125.206 140.5,139.5C 159.183,160.181 178.183,180.514 197.5,200.5 Z"/></g>
<g><path style="opacity:1" fill="#a18c52" d="M 192.5,71.5 C 192.5,70.8333 192.833,70.5 193.5,70.5C 197.833,70.5 202.167,70.5 206.5,70.5C 206.5,116.167 206.5,161.833 206.5,207.5C 205.833,207.5 205.5,207.167 205.5,206.5C 205.5,161.5 205.5,116.5 205.5,71.5C 201.167,71.5 196.833,71.5 192.5,71.5 Z"/></g>
<g><path style="opacity:1" fill="#866b39" d="M 200.5,76.5 C 201.498,101.661 201.831,126.995 201.5,152.5C 200.672,146.347 200.172,140.013 200,133.5C 199.819,136.695 199.319,139.695 198.5,142.5C 198.5,121.167 198.5,99.8333 198.5,78.5C 199.833,78.5 200.5,77.8333 200.5,76.5 Z"/></g>
<g><path style="opacity:1" fill="#e5e07c" d="M 69.5,94.5 C 70.1667,94.5 70.8333,94.5 71.5,94.5C 71.5,107.5 71.5,120.5 71.5,133.5C 70.8333,133.833 70.1667,134.167 69.5,134.5C 69.5,121.167 69.5,107.833 69.5,94.5 Z"/></g>
<g><path style="opacity:1" fill="#c2a959" d="M 71.5,133.5 C 71.5,145.5 71.5,157.5 71.5,169.5C 70.8333,169.5 70.1667,169.5 69.5,169.5C 69.5,157.833 69.5,146.167 69.5,134.5C 70.1667,134.167 70.8333,133.833 71.5,133.5 Z"/></g>
<g><path style="opacity:1" fill="#b5af78" d="M 201.5,152.5 C 201.5,169.5 201.5,186.5 201.5,203.5C 200.128,202.488 198.795,201.488 197.5,200.5C 198.497,181.341 198.83,162.007 198.5,142.5C 199.319,139.695 199.819,136.695 200,133.5C 200.172,140.013 200.672,146.347 201.5,152.5 Z"/></g>
<g><path style="opacity:1" fill="#ac8545" d="M 69.5,169.5 C 70.1667,169.5 70.8333,169.5 71.5,169.5C 71.5,183.5 71.5,197.5 71.5,211.5C 70.8333,211.5 70.1667,211.5 69.5,211.5C 69.5,197.5 69.5,183.5 69.5,169.5 Z"/></g>
<g><path style="opacity:1" fill="#776d42" d="M 77.5,59.5 C 78.1667,59.5 78.5,59.8333 78.5,60.5C 78.5,64.1667 78.5,67.8333 78.5,71.5C 74.1667,71.5 69.8333,71.5 65.5,71.5C 65.5,124.5 65.5,177.5 65.5,230.5C 69.8333,230.5 74.1667,230.5 78.5,230.5C 78.5,234.5 78.5,238.5 78.5,242.5C 89.6794,242.172 100.679,242.505 111.5,243.5C 100.167,243.5 88.8333,243.5 77.5,243.5C 77.5,239.5 77.5,235.5 77.5,231.5C 73.1667,231.5 68.8333,231.5 64.5,231.5C 64.5,177.833 64.5,124.167 64.5,70.5C 68.8333,70.5 73.1667,70.5 77.5,70.5C 77.5,66.8333 77.5,63.1667 77.5,59.5 Z"/></g>
<g><path style="opacity:1" fill="#c1b173" d="M 69.5,211.5 C 70.1667,211.5 70.8333,211.5 71.5,211.5C 71.5,215.5 71.5,219.5 71.5,223.5C 75.5138,223.334 79.5138,223.501 83.5,224C 84.756,224.417 85.4226,225.25 85.5,226.5C 84.8333,226.833 84.1667,227.167 83.5,227.5C 79.03,226.514 74.3633,226.181 69.5,226.5C 69.5,221.5 69.5,216.5 69.5,211.5 Z"/></g>
<g><path style="opacity:1" fill="#755e1c" d="M 205.5,217.5 C 205.833,217.5 206.167,217.5 206.5,217.5C 206.5,222.167 206.5,226.833 206.5,231.5C 201.901,231.2 197.401,231.533 193,232.5C 192.833,232.167 192.667,231.833 192.5,231.5C 196.783,230.508 201.116,230.174 205.5,230.5C 205.5,226.167 205.5,221.833 205.5,217.5 Z"/></g>
<g><path style="opacity:1" fill="#927321" d="M 198.5,213.5 C 199.71,213.932 200.71,214.599 201.5,215.5C 201.5,219.167 201.5,222.833 201.5,226.5C 196.833,226.5 192.167,226.5 187.5,226.5C 187.5,230.5 187.5,234.5 187.5,238.5C 177.833,238.5 168.167,238.5 158.5,238.5C 163.651,237.673 168.984,237.173 174.5,237C 168.843,236.501 163.176,236.334 157.5,236.5C 166.652,235.506 175.985,235.173 185.5,235.5C 185.207,231.563 185.54,227.73 186.5,224C 190.486,223.501 194.486,223.334 198.5,223.5C 198.5,220.167 198.5,216.833 198.5,213.5 Z"/></g>
<g><path style="opacity:1" fill="#bca449" d="M 157.5,236.5 C 163.176,236.334 168.843,236.501 174.5,237C 168.984,237.173 163.651,237.673 158.5,238.5C 150.323,243.795 141.323,246.128 131.5,245.5C 132.167,244.833 132.833,244.167 133.5,243.5C 142.153,243.337 150.153,241.004 157.5,236.5 Z"/></g>
<g><path style="opacity:1" fill="#ae8a29" d="M 157.5,244.5 C 157.611,243.883 157.944,243.383 158.5,243C 169.833,242.333 181.167,242.333 192.5,243C 180.788,243.208 169.121,243.708 157.5,244.5 Z"/></g>
<g><path style="opacity:1" fill="#949464" d="M 111.5,243.5 C 113.674,243.75 115.341,244.75 116.5,246.5C 114.326,246.25 112.659,245.25 111.5,243.5 Z"/></g>
<g><path style="opacity:1" fill="#c1bd7d" d="M 85.5,226.5 C 85.5,229.5 85.5,232.5 85.5,235.5C 94.8393,235.334 104.173,235.5 113.5,236C 119.47,240.378 126.136,242.878 133.5,243.5C 132.833,244.167 132.167,244.833 131.5,245.5C 125.018,244.763 119.018,242.596 113.5,239C 103.506,238.5 93.5056,238.334 83.5,238.5C 83.5,234.833 83.5,231.167 83.5,227.5C 84.1667,227.167 84.8333,226.833 85.5,226.5 Z"/></g>
<g><path style="opacity:1" fill="#9a965e" d="M 116.5,246.5 C 118.553,246.402 120.22,247.069 121.5,248.5C 119.447,248.598 117.78,247.931 116.5,246.5 Z"/></g>
<g><path style="opacity:1" fill="#5b5229" d="M 157.5,244.5 C 152.587,248.31 146.92,250.476 140.5,251C 133.784,252.085 127.45,251.252 121.5,248.5C 133.974,251.441 145.974,250.107 157.5,244.5 Z"/></g>
</svg>
